<svg xmlns="http://www.w3.org/2000/svg" viewBox="0 0 489.14 128.85"><title>goodidea</title><g id="Layer_2" data-name="Layer 2"><g id="Layer_1-2" data-name="Layer 1"><path d="M45.27,30c.33-3.15.53-5.05.73-7a4.92,4.92,0,0,1,1.36-.65c10.81-1.18,10.9-1.17,10.79,9.49-.13,14,.17,28-.8,41.94C56.53,85.53,48.91,92.6,37.2,94.57a51.76,51.76,0,0,1-28-2.63C2.9,89.46,2.73,89,5.84,83c.45-.86,1-1.67,1.13-1.91,7,1.6,13.48,3.86,20.12,4.43,9.57.82,16-3.69,18-11.64.73-2.81.6-5.84.35-9.39-7.78,7.69-16.78,11.11-26.91,7.72a30.83,30.83,0,0,1-13-8.57c-7.85-9.09-7.11-25.23.76-34.2,5.13-5.83,11.8-8.57,19.49-8.67C33.3,20.7,39.47,24.08,45.27,30ZM29,31c-9.41,0-16.69,7.23-16.54,16.31a16.35,16.35,0,0,0,16.46,16c9.46.11,17.35-7.41,17.18-16.37S38.37,31,29,31Z"/><path d="M352.51,29.93V.44c3.61,0,6.92-.37,10.05.2,1.05.2,2.33,2.8,2.35,4.33.18,12.81.1,25.62.1,38.44,0,9.65-.17,19.31.08,29,.11,4-.95,5.95-5.25,5.44a67.09,67.09,0,0,0-7,0c-.18-2.58-.35-5-.6-8.55-7.44,8.44-16,11.49-26.23,8.88a24.2,24.2,0,0,1-14-9.87c-8.25-11.53-6.76-30.59,3.07-40.16C325.34,18.12,337.07,18.51,352.51,29.93Zm.09,19.73c-.05-10.52-7.46-18.52-17-18.33s-16.49,8.28-16.34,19c.14,10.36,7.29,18.3,16.51,18.34C345.49,68.69,352.66,60.59,352.6,49.66Z"/><path d="M254.31,30.51c0-7.85,0-14.26,0-20.67,0-10.59.46-10.95,11.74-8.77v75.6c-8.21,3.11-11,1.67-12.26-6.58-.61.21-1.35.23-1.68.61-7.21,8.26-16.18,10.19-26.25,6.8s-15.1-11-17-21c-2.51-13.18,2.61-26.41,12.33-32,10.54-6,20.73-4.89,29.85,3.25C251.63,28.35,252.28,28.84,254.31,30.51Zm.09,19.62c.08-10.27-7.38-18.64-16.76-18.78C228,31.2,221,38.87,220.88,49.82c-.12,10.61,7,18.77,16.49,18.82C246.66,68.68,254.33,60.35,254.4,50.13Z"/><path d="M447.37,35c-4.09-9.91-4.1-10,5.56-12.31,7.9-1.92,15.83-2.33,23.67.36,6.7,2.29,11.73,7.06,12.13,13.93.77,13.38.22,26.83.22,40.52H478.2c-.32-1.88-.59-3.44-.7-4-5.85,1.9-11.42,4.59-17.25,5.4C450.81,80.12,443,75.5,440,68.25a16.9,16.9,0,0,1,12.71-23.32c6.74-1.15,13.84-.15,20.78-.06a26.79,26.79,0,0,1,3.32.47c1.49-6.75-2.33-12.28-9.6-12.84-4.89-.38-9.9.61-14.84,1.13A36.35,36.35,0,0,0,447.37,35Zm17.88,16.91-.27-.67c-3.41,1.11-7.15,1.66-10.13,3.47-4.9,3-4.83,9.64-.36,13.16,6.52,5.13,19.63,1.64,22.73-6.07,2.24-5.56.88-8.11-5-9.13C469.91,52.22,467.57,52.11,465.25,51.86Z"/><path d="M389.53,54.29c2.37,15.84,17,19.57,31.75,8.67l6.79,5.87c-4.93,7-11.94,9.33-19.71,10.23-15.27,1.76-28.06-7.76-31.12-23.18s5.43-30.15,19.82-34.07c16.46-4.49,34.39,5.75,34.07,29.33,0,3.33-2.19,3.13-4.41,3.13l-31.45,0Zm28.66-8.21c-.42-9.58-6.56-15.82-14.61-15.49-7.7.33-14.07,7.33-13.77,15.49Z"/><path d="M169.92,21.22c17.16.05,29.65,12.34,29.51,29-.12,16.38-13.17,28.93-30,28.83s-29.66-12.74-29.67-29.2C139.76,33.69,152.93,21.17,169.92,21.22Zm-.31,10.05c-10.05-.07-17.46,7.74-17.54,18.48s7.65,19.18,17.5,19.37,18-8.37,17.93-18.88S179.58,31.34,169.61,31.27Z"/><path d="M129.54,49.88c.82,15.86-12.18,28.88-29.44,29.19-16.81.31-29.79-12.35-29.89-28.83s12.7-29,29.64-29C117.16,21.15,129.48,33.05,129.54,49.88Zm-11.87.28c0-10.61-7.82-18.93-17.83-18.93S82.46,39.05,82.32,49.8c-.14,10.43,7.89,19.25,17.6,19.35C109.87,69.25,117.66,60.92,117.67,50.16Z"/><path d="M171.71,95.24a7.6,7.6,0,0,1,1.57.32c7.49,3.79,7.33,3.79,2.71,10.78-18.56,28-52.7,26.71-70.21,13.2A60.13,60.13,0,0,1,89.44,99.88l7.69-5.28C106.19,108,117.7,116.94,134.52,117S163,108.22,171.71,95.24Z"/><path d="M294.05,77.11c-.3.21-.43.36-.57.38-11.36,1.43-11.36,1.43-11.36-9.93q0-19.45,0-38.92c0-6.5,0-6.52,6.63-6.46,1.64,0,3.27.15,5.29.24Z"/><path d="M295.07,12.18H282V1.05c3.69,0,7.65-.08,11.6.1.53,0,1.37,1.39,1.42,2.18C295.18,6.11,295.07,8.91,295.07,12.18Z"/></g></g></svg>