<?xml version="1.0" encoding="utf-8"?>
<!-- Generator: Adobe Illustrator 23.0.1, SVG Export Plug-In . SVG Version: 6.00 Build 0)  -->
<svg version="1.1" id="Layer_1" xmlns="http://www.w3.org/2000/svg" xmlns:xlink="http://www.w3.org/1999/xlink" x="0px" y="0px"
	 viewBox="0 0 489.1 128.9" style="enable-background:new 0 0 489.1 128.9;" xml:space="preserve">
<style type="text/css">
	.st0{fill:#FFFFFF;}
</style>
<title>goodidea</title>
<g>
	<g id="Layer_1-2">
		<path class="st0" d="M45.3,30c0.3-3.1,0.5-5,0.7-7c0.4-0.3,0.9-0.5,1.4-0.6c10.8-1.2,10.9-1.2,10.8,9.5c-0.1,14,0.2,28-0.8,41.9
			c-0.8,11.8-8.4,18.8-20.2,20.8c-9.4,1.7-19.1,0.8-28-2.6C2.9,89.5,2.7,89,5.8,83c0.4-0.9,1-1.7,1.1-1.9c7,1.6,13.5,3.9,20.1,4.4
			c9.6,0.8,16-3.7,18-11.6c0.7-2.8,0.6-5.8,0.3-9.4c-7.8,7.7-16.8,11.1-26.9,7.7c-5-1.7-9.5-4.6-13-8.6c-7.8-9.1-7.1-25.2,0.8-34.2
			c5.1-5.8,11.8-8.6,19.5-8.7C33.3,20.7,39.5,24.1,45.3,30z M29,31c-9.4,0-16.7,7.2-16.5,16.3c0.2,8.9,7.5,16.1,16.5,16
			c9.5,0.1,17.3-7.4,17.2-16.4S38.4,31,29,31z"/>
		<path class="st0" d="M352.5,29.9V0.4c3.6,0,6.9-0.4,10,0.2c1,0.2,2.3,2.8,2.4,4.3c0.2,12.8,0.1,25.6,0.1,38.4
			c0,9.6-0.2,19.3,0.1,29c0.1,4-1,5.9-5.2,5.4c-2.3-0.1-4.7-0.1-7,0c-0.2-2.6-0.4-5-0.6-8.6c-7.4,8.4-16,11.5-26.2,8.9
			c-5.7-1.5-10.7-5-14-9.9c-8.2-11.5-6.8-30.6,3.1-40.2C325.3,18.1,337.1,18.5,352.5,29.9z M352.6,49.7c0-10.5-7.5-18.5-17-18.3
			s-16.5,8.3-16.3,19c0.1,10.4,7.3,18.3,16.5,18.3C345.5,68.7,352.7,60.6,352.6,49.7z"/>
		<path class="st0" d="M254.3,30.5c0-7.9,0-14.3,0-20.7c0-10.6,0.5-10.9,11.7-8.8v75.6c-8.2,3.1-11,1.7-12.3-6.6
			c-0.6,0.2-1.4,0.2-1.7,0.6c-7.2,8.3-16.2,10.2-26.2,6.8s-15.1-11-17-21c-2.5-13.2,2.6-26.4,12.3-32c10.5-6,20.7-4.9,29.9,3.2
			C251.6,28.4,252.3,28.8,254.3,30.5z M254.4,50.1c0.1-10.3-7.4-18.6-16.8-18.8c-9.6-0.1-16.6,7.5-16.8,18.5
			c-0.1,10.6,7,18.8,16.5,18.8C246.7,68.7,254.3,60.3,254.4,50.1z"/>
		<path class="st0" d="M447.4,35c-4.1-9.9-4.1-10,5.6-12.3c7.9-1.9,15.8-2.3,23.7,0.4c6.7,2.3,11.7,7.1,12.1,13.9
			c0.8,13.4,0.2,26.8,0.2,40.5h-10.8c-0.3-1.9-0.6-3.4-0.7-4c-5.9,1.9-11.4,4.6-17.2,5.4c-9.4,1.2-17.2-3.4-20.2-10.7
			c-3.7-8.6,0.3-18.5,8.9-22.2c1.2-0.5,2.5-0.9,3.8-1.1c6.7-1.2,13.8-0.2,20.8-0.1c1.1,0.1,2.2,0.2,3.3,0.5
			c1.5-6.8-2.3-12.3-9.6-12.8c-4.9-0.4-9.9,0.6-14.8,1.1C450.7,34,449,34.4,447.4,35z M465.2,51.9l-0.3-0.7
			c-3.4,1.1-7.1,1.7-10.1,3.5c-4.9,3-4.8,9.6-0.4,13.2c6.5,5.1,19.6,1.6,22.7-6.1c2.2-5.6,0.9-8.1-5-9.1
			C469.9,52.2,467.6,52.1,465.2,51.9L465.2,51.9z"/>
		<path class="st0" d="M389.5,54.3c2.4,15.8,17,19.6,31.8,8.7l6.8,5.9c-4.9,7-11.9,9.3-19.7,10.2c-15.3,1.8-28.1-7.8-31.1-23.2
			s5.4-30.1,19.8-34.1c16.5-4.5,34.4,5.8,34.1,29.3c0,3.3-2.2,3.1-4.4,3.1h-31.5L389.5,54.3z M418.2,46.1
			c-0.4-9.6-6.6-15.8-14.6-15.5c-7.7,0.3-14.1,7.3-13.8,15.5H418.2z"/>
		<path class="st0" d="M169.9,21.2c17.2,0,29.6,12.3,29.5,29c-0.1,16.4-13.2,28.9-30,28.8s-29.7-12.7-29.7-29.2
			C139.8,33.7,152.9,21.2,169.9,21.2z M169.6,31.3c-10.1-0.1-17.5,7.7-17.5,18.5s7.6,19.2,17.5,19.4s18-8.4,17.9-18.9
			S179.6,31.3,169.6,31.3z"/>
		<path class="st0" d="M129.5,49.9c0.8,15.9-12.2,28.9-29.4,29.2c-16.8,0.3-29.8-12.3-29.9-28.8s12.7-29,29.6-29
			C117.2,21.1,129.5,33,129.5,49.9z M117.7,50.2c0-10.6-7.8-18.9-17.8-18.9S82.5,39,82.3,49.8c-0.1,10.4,7.9,19.3,17.6,19.4
			C109.9,69.2,117.7,60.9,117.7,50.2z"/>
		<path class="st0" d="M171.7,95.2c0.5,0.1,1.1,0.2,1.6,0.3c7.5,3.8,7.3,3.8,2.7,10.8c-18.6,28-52.7,26.7-70.2,13.2
			c-6.8-5.3-12.4-12-16.3-19.7l7.7-5.3c9.1,13.4,20.6,22.3,37.4,22.4S163,108.2,171.7,95.2z"/>
		<path class="st0" d="M294,77.1c-0.3,0.2-0.4,0.4-0.6,0.4c-11.4,1.4-11.4,1.4-11.4-9.9c0-13,0-25.9,0-38.9c0-6.5,0-6.5,6.6-6.5
			c1.6,0,3.3,0.1,5.3,0.2L294,77.1z"/>
		<path class="st0" d="M295.1,12.2H282V1c3.7,0,7.6-0.1,11.6,0.1c0.5,0,1.4,1.4,1.4,2.2C295.2,6.1,295.1,8.9,295.1,12.2z"/>
	</g>
</g>
</svg>
